<?xml version="1.0" standalone="no"?>
<!DOCTYPE svg PUBLIC "-//W3C//DTD SVG 20010904//EN"
 "http://www.w3.org/TR/2001/REC-SVG-20010904/DTD/svg10.dtd">
<svg version="1.0" xmlns="http://www.w3.org/2000/svg"
 width="322.000000pt" height="97.000000pt" viewBox="0 0 322.000000 97.000000"
 preserveAspectRatio="xMidYMid meet">

<g transform="translate(0.000000,97.000000) scale(0.100000,-0.100000)"
fill="#000000" stroke="none">
<path d="M1225 948 c-71 -5 -177 -15 -235 -23 -58 -8 -123 -17 -145 -20 -108
-15 -221 -39 -227 -49 -14 -21 -8 -28 17 -22 14 4 83 15 153 26 437 67 1155
67 1592 -1 76 -11 177 -20 232 -19 87 1 98 -1 107 -19 14 -25 40 -51 52 -51 5
0 9 17 9 39 l0 38 -102 21 c-204 42 -371 64 -618 82 -162 12 -653 11 -835 -2z"/>
<path d="M292 663 l3 -228 145 0 145 0 0 60 0 60 -68 3 c-63 3 -68 4 -65 24 3
20 8 22 61 19 l57 -2 0 60 0 61 -60 0 c-57 0 -60 1 -60 25 0 24 2 25 70 25
l70 0 0 60 0 60 -150 0 -150 0 2 -227z"/>
<path d="M1218 813 l-118 -4 0 -189 0 -190 126 0 125 0 -3 53 -3 52 -57 3
c-43 2 -58 7 -58 17 0 11 13 15 50 15 l50 0 0 50 0 50 -50 0 c-43 0 -50 3 -50
20 0 18 7 20 55 20 l55 0 0 55 c0 30 -1 54 -2 53 -2 -1 -56 -4 -120 -5z"/>
<path d="M1885 804 c-71 -37 -109 -101 -109 -184 0 -127 98 -212 224 -195 l50
7 0 69 c0 66 -1 69 -19 59 -33 -17 -71 -11 -96 15 -32 31 -32 69 1 101 25 26
61 29 104 10 13 -5 14 4 10 61 l-5 68 -65 3 c-44 1 -74 -3 -95 -14z"/>
<path d="M2215 807 c-16 -8 -47 -32 -67 -55 -82 -91 -55 -257 51 -312 111 -56
240 -20 292 82 29 57 24 160 -10 210 -41 60 -85 82 -165 86 -44 1 -82 -3 -101
-11z m125 -117 c56 -30 37 -142 -27 -148 -44 -4 -73 26 -73 77 0 31 6 44 26
60 30 23 46 26 74 11z"/>
<path d="M660 620 l0 -190 65 0 64 0 3 92 3 93 53 -93 53 -92 70 0 69 0 0 190
0 190 -65 0 -65 0 0 -91 c0 -54 -4 -88 -10 -84 -5 3 -31 44 -57 90 l-48 85
-67 0 -68 0 0 -190z"/>
<path d="M1410 620 l0 -190 65 0 65 0 0 63 0 62 30 -62 29 -63 76 0 75 0 -26
43 c-15 23 -36 54 -46 70 l-20 27 31 29 c27 25 31 36 31 79 0 35 -6 57 -21 76
-36 46 -69 56 -184 56 l-105 0 0 -190z m175 55 c0 -23 -5 -31 -22 -33 -20 -3
-23 1 -23 33 0 32 3 36 23 33 17 -2 22 -10 22 -33z"/>
<path d="M2570 620 l0 -190 60 0 60 0 0 90 c0 50 3 90 8 90 4 -1 30 -40 57
-88 l50 -87 68 -3 67 -3 0 191 0 190 -60 0 -60 0 0 -96 c0 -52 -4 -93 -9 -90
-5 3 -33 46 -62 96 l-53 90 -63 0 -63 0 0 -190z"/>
<path d="M2970 730 c0 -49 4 -61 20 -70 11 -6 31 -31 46 -56 21 -36 26 -54 21
-90 -4 -37 -12 -52 -48 -84 -59 -53 -176 -113 -323 -166 -67 -24 -117 -43
-113 -43 5 -1 54 11 110 25 278 70 455 162 507 265 53 104 9 170 -172 256
l-48 22 0 -59z"/>
<path d="M210 730 c-39 -21 -30 -26 19 -9 17 6 31 15 31 20 0 13 -10 11 -50
-11z"/>
<path d="M128 689 c-21 -11 -38 -22 -38 -24 0 -3 18 4 40 15 22 11 40 23 40
25 0 7 0 7 -42 -16z"/>
<path d="M201 590 c-63 -23 -98 -44 -128 -79 -147 -168 452 -326 1162 -306
132 3 260 8 285 10 235 21 516 58 529 71 12 11 -11 11 -84 -2 -87 -15 -103
-17 -272 -29 -62 -4 -111 -11 -109 -14 8 -12 -676 -5 -779 7 -328 40 -526 98
-589 173 -39 45 -35 92 9 136 20 20 34 39 33 44 -2 4 -27 -1 -57 -11z"/>
<path d="M2070 300 c-11 -8 -7 -9 15 -4 37 8 45 14 19 14 -10 0 -26 -5 -34
-10z"/>
<path d="M675 131 c-3 -5 4 -11 16 -13 20 -3 22 -10 23 -57 1 -34 6 -56 14
-58 9 -3 12 11 12 52 0 48 3 58 20 62 11 3 20 9 20 14 0 12 -97 12 -105 0z"/>
<path d="M800 71 l0 -71 51 0 c60 0 65 23 6 28 -50 4 -51 32 -2 32 44 0 46 18
3 22 -46 4 -47 26 -1 30 54 4 47 22 -9 26 l-48 3 0 -70z"/>
<path d="M937 122 c-23 -25 -22 -84 2 -106 23 -21 70 -18 85 6 15 24 -3 37
-19 15 -7 -10 -22 -17 -32 -15 -26 5 -26 91 0 96 10 2 25 -5 32 -15 16 -22 34
-9 19 15 -16 25 -66 27 -87 4z"/>
<path d="M1060 70 c0 -52 3 -71 12 -68 7 3 12 17 13 33 0 24 4 29 25 29 21 1
26 -5 28 -32 2 -20 8 -32 15 -29 16 5 16 129 0 134 -7 3 -13 -8 -15 -24 -2
-22 -8 -28 -28 -28 -20 0 -25 5 -25 24 0 14 -6 26 -13 29 -9 3 -12 -16 -12
-68z"/>
<path d="M1197 133 c-4 -3 -7 -35 -7 -70 0 -49 3 -63 15 -63 11 0 15 12 15 48
l1 47 25 -47 c37 -71 54 -64 54 23 0 52 -3 70 -12 66 -8 -2 -13 -21 -12 -46 0
-22 0 -41 -2 -41 -1 0 -14 20 -28 45 -26 44 -36 52 -49 38z"/>
<path d="M1337 122 c-23 -25 -22 -85 1 -105 37 -34 96 -16 107 32 6 30 -7 69
-29 83 -20 14 -63 8 -79 -10z m77 -35 c13 -36 -2 -62 -35 -62 -20 0 -25 6 -27
33 -5 47 4 64 30 60 14 -2 26 -14 32 -31z"/>
<path d="M1470 71 l0 -71 45 0 c25 0 45 5 45 10 0 6 -13 10 -30 10 -28 0 -29
1 -32 57 -2 34 -8 58 -15 61 -10 3 -13 -15 -13 -67z"/>
<path d="M1600 120 c-43 -43 -14 -120 45 -120 45 0 70 35 61 85 -11 55 -67 74
-106 35z m68 -12 c28 -28 8 -88 -29 -88 -18 0 -29 19 -29 54 0 24 17 46 35 46
6 0 16 -5 23 -12z"/>
<path d="M1740 120 c-24 -24 -26 -67 -4 -98 14 -20 23 -23 62 -19 44 3 47 5
50 35 3 30 1 32 -27 32 -17 0 -31 -4 -31 -10 0 -5 7 -10 15 -10 9 0 12 -6 9
-15 -7 -18 -35 -20 -52 -3 -17 17 -15 63 3 78 13 11 20 11 40 0 31 -16 47 -4
21 16 -28 20 -63 17 -86 -6z"/>
<path d="M1877 133 c-4 -3 -7 -35 -7 -70 0 -49 3 -63 15 -63 12 0 15 14 15 70
0 64 -6 81 -23 63z"/>
<path d="M1930 71 l0 -71 51 0 c60 0 65 23 6 28 -50 4 -51 32 -1 32 23 0 34 4
32 12 -3 7 -17 12 -33 13 -44 0 -43 23 2 27 54 4 47 22 -9 26 l-48 3 0 -70z"/>
<path d="M2056 124 c-19 -18 -19 -20 -6 -43 5 -10 23 -21 40 -24 18 -4 30 -13
30 -22 0 -17 -35 -21 -45 -5 -3 6 -13 10 -21 10 -12 0 -12 -4 -4 -21 9 -16 19
-19 47 -17 68 6 71 63 5 80 -18 5 -32 13 -32 19 0 16 29 22 45 9 22 -19 41 -7
21 13 -22 21 -60 22 -80 1z"/>
<path d="M2230 70 l0 -70 45 0 c52 0 61 17 13 22 -33 3 -33 4 -36 61 -4 81
-22 71 -22 -13z"/>
<path d="M2315 130 c-3 -5 3 -10 14 -10 17 0 20 -8 23 -57 4 -78 28 -85 28 -8
0 48 3 58 20 62 11 3 20 9 20 14 0 12 -97 11 -105 -1z"/>
<path d="M2440 70 l0 -70 38 0 c48 0 72 24 72 73 0 43 -28 67 -77 67 l-33 0 0
-70z m80 25 c13 -34 -3 -75 -30 -75 -17 0 -20 6 -20 50 0 44 3 50 20 50 13 0
24 -10 30 -25z"/>
</g>
</svg>
